{"title":"Lost City Raiders-AC3-5,1-DVDRip[Eng]2008","uid":5095197,"size":1489347142,"categoryP":"video","categoryS":"movies","magnet":"?xt=urn:btih:ced18ce45b846d6b53364342217f0758ef3e8841&amp;dn=Lost+City+Raiders-AC3-5%2C1-DVDRip%5BEng%5D2008&amp;tr=udp%3A%2F%2Ftracker.openbittorrent.com%3A80&amp;tr=udp%3A%2F%2Fopen.demonii.com%3A1337&amp;tr=udp%3A%2F%2Ftracker.coppersurfer.tk%3A6969&amp;tr=udp%3A%2F%2Fexodus.desync.com%3A6969","seeders":1,"leechers":0,"uploader":"FatFreddy31","files":-1,"time":1253491778,"description":" &lt;a href=&quot;http://www.imdb.com/title/tt1198403/&quot; rel=&quot;nofollow&quot; target=&quot;_NEW&quot;&gt;http://www.imdb.com/title/tt1198403/&lt;/a&gt;\n\nUser Rating:4.1/10 - 530 votes\n\nAdventure,Sci-Fi\n\nDirector:Jean de Segonzac\n\nCast:James Brolin/Ian Somerhalder/Bettina Zimmermann, and others.\n\nPlot:\nThe year is 2048, and global warming has flooded much of Earth's land areas. A father and his two sons try to salvage treasures from sunken buildings when they are given an important assignment by the New Vatican........\n\nInfo:\n\nGeneral\nComplete name                    : Lost City Raiders-AC3-5,1-DVDRip[Eng]2008.avi\nFormat                           : AVI\nFormat/Info                      : Audio Video Interleave\nFile size                        : 1.39 GiB\nDuration                         : 1h 37mn\nOverall bit rate                 : 2 036 Kbps\nWriting application              : VirtualDubMod 1.5.4.1 (build 2178/release)\nWriting library                  : VirtualDubMod build 2178/release\n\nVideo\nFormat                           : MPEG-4 Visual\nFormat profile                   : Streaming Video@L1\nFormat settings, BVOP            : Yes\nFormat settings, QPel            : No\nFormat settings, GMC             : No warppoints\nFormat settings, Matrix          : Default\nMuxing mode                      : Packed bitstream\nCodec ID                         : XVID\nCodec ID/Hint                    : XviD\nDuration                         : 1h 37mn\nBit rate                         : 1 581 Kbps\nWidth                            : 704 pixels\nHeight                           : 400 pixels\nDisplay aspect ratio             : 16/9\nFrame rate                       : 25.000 fps\nResolution                       : 24 bits\nColorimetry                      : 4:2:0\nScan type                        : Progressive\nBits/(Pixel*Frame)               : 0.225\nStream size                      : 1.08 GiB (78%)\nWriting library                  : XviD 50\n\nAudio\nFormat                           : AC-3\nFormat/Info                      : Audio Coding 3\nCodec ID                         : 2000\nDuration                         : 1h 37mn\nBit rate mode                    : Constant\nBit rate                         : 448 Kbps\nChannel(s)                       : 6 channels\nChannel positions                : Front: L C R, Surround: L R, LFE\nSampling rate                    : 48.0 KHz\nStream size                      : 313 MiB (22%)\nAlignment                        : Split accross interleaves\nInterleave, duration             : 80 ms (2.00 video frames)\nInterleave, preload duration     : 500 ms\nLanguage                         : English\n\nEnjoy....","torrent":{"xt":"urn:btih:ced18ce45b846d6b53364342217f0758ef3e8841","amp;dn":"Lost+City+Raiders-AC3-5%2C1-DVDRip%5BEng%5D2008","amp;tr":["udp%3A%2F%2Ftracker.openbittorrent.com%3A80","udp%3A%2F%2Fopen.demonii.com%3A1337","udp%3A%2F%2Ftracker.coppersurfer.tk%3A6969","udp%3A%2F%2Fexodus.desync.com%3A6969"],"infoHash":"ced18ce45b846d6b53364342217f0758ef3e8841","infoHashBuffer":{"type":"Buffer","data":[206,209,140,228,91,132,109,107,83,54,67,66,33,127,7,88,239,62,136,65]},"announce":[],"urlList":[]}}